HIERARCHY
ROOT Bip001_Pelvis
{
  OFFSET 34.4345 95.6767 -26.8758
  CHANNELS 6 Xposition Yposition Zposition Zrotation Xrotation Yrotation
  JOINT Bip001_Spine
  {
    OFFSET 1.4188e-005 10.2191 -0.0116013
    CHANNELS 3 Zrotation Xrotation Yrotation
    JOINT Bip001_L_Thigh
    {
      OFFSET 11.0458 -10.2192 0.0116197
      CHANNELS 3 Zrotation Xrotation Yrotation
      JOINT Bip001_L_Calf
      {
        OFFSET -0.707118 -44.0221 0.360014
        CHANNELS 3 Zrotation Xrotation Yrotation
        JOINT Bip001_L_Foot
        {
          OFFSET -0.651902 -40.5938 -3.56146
          CHANNELS 3 Zrotation Xrotation Yrotation
          JOINT Bip001_L_Toe0
          {
            OFFSET 0.0530839 -10.2181 13.1504
            CHANNELS 3 Zrotation Xrotation Yrotation
            End Site
            {
              OFFSET -1.02532e-005 0 7.55606
            }
          }
        }
      }
    }
    JOINT Bip001_R_Thigh
    {
      OFFSET -11.0458 -10.2191 0.0115893
      CHANNELS 3 Zrotation Xrotation Yrotation
      JOINT Bip001_R_Calf
      {
        OFFSET 0.706994 -44.0221 0.35984
        CHANNELS 3 Zrotation Xrotation Yrotation
        JOINT Bip001_R_Foot
        {
          OFFSET 0.651786 -40.5938 -3.5613
          CHANNELS 3 Zrotation Xrotation Yrotation
          JOINT Bip001_R_Toe0
          {
            OFFSET -0.0531479 -10.2181 13.1504
            CHANNELS 3 Zrotation Xrotation Yrotation
            End Site
            {
              OFFSET -1.02894e-005 0 7.55606
            }
          }
        }
      }
    }
    JOINT Bip001_Spine1
    {
      OFFSET 1.87041e-005 14.5736 1.08638
      CHANNELS 3 Zrotation Xrotation Yrotation
      JOINT Bip001_Spine2
      {
        OFFSET 2.24614e-005 14.5058 -1.69078
        CHANNELS 3 Zrotation Xrotation Yrotation
        JOINT Bip001_Neck
        {
          OFFSET 2.20278e-005 15.3945 -0.489414
          CHANNELS 3 Zrotation Xrotation Yrotation
          JOINT Bip001_L_Clavicle
          {
            OFFSET 6.06036 -0.000579998 0.00836775
            CHANNELS 3 Zrotation Xrotation Yrotation
            JOINT Bip001_L_UpperArm
            {
              OFFSET 11.5509 -0.0600302 0.00193952
              CHANNELS 3 Zrotation Xrotation Yrotation
              JOINT Bip001_L_Forearm
              {
                OFFSET 25.9523 0.0806089 -2.15551
                CHANNELS 3 Zrotation Xrotation Yrotation
                JOINT Bip001_L_Hand
                {
                  OFFSET 32.2475 0.153767 1.63968
                  CHANNELS 3 Zrotation Xrotation Yrotation
                  JOINT Bip001_L_Finger0
                  {
                    OFFSET 6.04639 -2.20976 5.90322
                    CHANNELS 3 Zrotation Xrotation Yrotation
                    End Site
                    {
                      OFFSET 4.22375 -1.43895 0.606485
                    }
                  }
                  JOINT Bip001_L_Finger1
                  {
                    OFFSET 11.0826 -0.704819 -0.198153
                    CHANNELS 3 Zrotation Xrotation Yrotation
                    End Site
                    {
                      OFFSET 6.20027 -0.397518 -0.0787166
                    }
                  }
                }
              }
            }
          }
          JOINT Bip001_R_Clavicle
          {
            OFFSET -6.06037 -0.000563197 0.00835105
            CHANNELS 3 Zrotation Xrotation Yrotation
            JOINT Bip001_R_UpperArm
            {
              OFFSET -11.5509 -0.0599978 0.00190698
              CHANNELS 3 Zrotation Xrotation Yrotation
              JOINT Bip001_R_Forearm
              {
                OFFSET -25.9523 0.0806822 -2.15589
                CHANNELS 3 Zrotation Xrotation Yrotation
                JOINT Bip001_R_Hand
                {
                  OFFSET -32.2475 0.153859 1.63989
                  CHANNELS 3 Zrotation Xrotation Yrotation
                  JOINT Bip001_R_Finger0
                  {
                    OFFSET -6.04641 -2.20976 5.90317
                    CHANNELS 3 Zrotation Xrotation Yrotation
                    End Site
                    {
                      OFFSET -4.22376 -1.43895 0.60647
                    }
                  }
                  JOINT Bip001_R_Finger1
                  {
                    OFFSET -11.0826 -0.704794 -0.198182
                    CHANNELS 3 Zrotation Xrotation Yrotation
                    End Site
                    {
                      OFFSET -6.20028 -0.397504 -0.0787333
                    }
                  }
                }
              }
            }
          }
          JOINT Bip001_Head
          {
            OFFSET 1.09673e-005 11.2744 2.05948
            CHANNELS 3 Zrotation Xrotation Yrotation
            End Site
            {
              OFFSET 2.89576e-005 20.8808 -2.77728e-005
            }
          }
        }
      }
    }
  }
}
MOTION
Frames:	9
Frame Time:	0.04
32.7216 95.9641 -31.2935 0.117687 -2.84693 -2.5532 0.307064 2.4654 -0.702075 5.46523 0.840373 13.8173 0.399922 5.67177 -0.0102439 -0.460072 -2.98496 0.0500073 1.55816 -4.15247 -1.04189 -5.25768 -1.97485 -0.673068 0.512554 9.18332 0.0545762 -4.64144 -7.46679 1.83678 2.27985 -7.7983 2.48372 0.645293 4.92764 -1.41934 0.645298 4.9278 -1.41934 6.19315 -3.80084 -0.0234061 -28.8183 5.9811 -3.85834 -55.6494 42.9868 8.28901 13.5797 -5.05302 -26.2067 5.86364 0.65853 -2.92449 6.36111e-015 3.18055e-015 -0 9.54166e-015 0 -1.59028e-015 18.9956 9.65506 14.4913 48.4642 13.3692 -9.9543 -43.5832 13.1578 51.4013 -5.96463 -6.76805 9.6989 0 1.59028e-015 -0 1.32417e-031 4.77083e-015 -1.59028e-015 -6.40829 -0.0727549 3.03691 
32.4843 95.9504 -31.0168 -0.0283452 -2.83667 -4.37094 0.516833 2.44626 -0.942444 5.3394 1.7651 14.4245 0.28875 5.06278 1.16139 -0.566466 -2.93088 0.0500049 1.40778 -4.15701 -0.854403 -5.36885 -1.9915 -0.335627 0.429257 8.9151 -0.0301843 -4.0599 -7.73386 3.5345 2.19913 -7.58036 2.44771 1.07529 4.88294 -1.90961 1.07529 4.88278 -1.90961 4.9695 -3.07368 2.04704 -27.7444 6.2466 -5.68786 -57.3088 44.5173 8.91435 13.8137 -3.56753 -23.8507 3.29093 1.36704 -1.773 3.18055e-015 -3.18055e-015 -0 6.36111e-015 3.18056e-015 -0 22.9917 9.11463 14.235 51.328 18.476 -11.9671 -38.6391 14.2755 35.3725 -0.749303 -10.7099 10.562 -3.18055e-015 6.36111e-015 3.18055e-015 -3.18055e-015 0 -0 -5.51267 -1.51507 4.50192 
32.291 95.9182 -30.9463 0.0537342 -2.54971 -6.18344 0.66329 2.3739 -1.07556 4.9174 2.24587 14.8814 0.362697 4.45044 2.26038 -0.157761 -2.39419 0.0340445 1.42631 -4.73627 -0.779309 -5.64925 -2.73533 0.593259 0.585465 9.36314 -0.0599436 -3.76672 -8.09987 4.43573 2.14578 -7.43171 2.41705 1.37291 4.73476 -2.18139 1.37287 4.73476 -2.18138 4.02187 -2.57314 3.83632 -26.7381 6.43163 -6.94173 -58.2588 46.4315 8.8382 14.174 -1.83159 -22.1834 1.1315 1.6183 -1.42419 4.77083e-015 0 7.95139e-016 4.77083e-015 3.18056e-015 2.38542e-015 25.6859 8.59029 14.1203 53.3224 18.4206 -13.0284 -31.7967 12.7015 24.2954 5.68135 -15.5855 9.17095 1.59028e-015 3.18055e-015 -0 -1.59028e-015 0 -0 -4.99901 -2.86329 5.86047 
32.1513 95.9003 -30.8539 0.296814 -2.57613 -7.69208 0.70531 2.33899 -1.1495 4.4527 2.99142 15.6198 0.387965 3.76194 3.00721 -0.399999 -2.27533 0.0341657 1.332 -4.68465 -0.638913 -5.99192 -3.36974 1.056 0.686667 10.2375 0.224721 -3.63962 -8.59393 5.13041 2.10288 -7.32058 2.40804 1.45929 4.66304 -2.33064 1.4593 4.66299 -2.33064 3.43331 -2.49591 5.0852 -25.9051 6.8365 -8.04427 -58.8582 47.9005 8.79798 14.4132 -1.36999 -21.3271 -0.643033 1.6627 -1.07684 -3.18055e-015 -3.18055e-015 3.97569e-016 -3.18055e-015 3.18056e-015 -0 27.5273 7.94666 12.8937 55.5419 17.0859 -12.7613 -25.9971 7.78239 15.1473 9.66509 -16.6647 8.21017 1.98785e-015 3.18055e-015 -0 1.59028e-015 3.18056e-015 -1.59028e-015 -4.1497 -3.71758 6.73614 
32.0009 95.8069 -30.763 0.229033 -2.90098 -8.95937 0.756793 2.35887 -1.27583 4.18178 3.40473 16.7116 0.751068 4.10593 2.80803 0.343501 -2.07777 0.00428518 1.44218 -5.27302 -0.579279 -5.90629 -3.96554 1.99524 0.683338 11.6801 0.870713 -4.0864 -9.1329 4.98806 2.12019 -7.39768 2.45896 1.56799 4.70006 -2.58602 1.568 4.70006 -2.58602 4.12579 -1.90995 6.21835 -26.3198 6.74574 -8.99464 -59.3262 47.9231 9.0919 14.5494 -2.11712 -21.6908 -0.596112 1.71829 -0.765573 -4.77083e-015 -3.18055e-015 -3.97569e-016 -4.77083e-015 -3.18056e-015 -3.97569e-016 26.9555 6.71642 11.3065 58.0572 14.0093 -13.6604 -23.1556 3.21901 12.2083 10.2387 -15.0682 7.24884 -7.95139e-016 0 1.19271e-015 -6.95746e-016 0 1.19271e-015 -4.68843 -4.63026 8.14278 
31.7607 95.638 -30.7323 -0.145716 -3.18208 -10.3494 0.844292 2.40769 -1.33418 4.6259 3.24239 16.9912 0.70384 5.83207 3.76268 0.465888 -2.90312 0.0127234 1.50864 -5.5199 -0.55141 -5.4167 -4.6619 4.14526 0.872161 13.1923 0.887558 -4.81913 -9.59783 4.26194 2.22817 -7.68985 2.48714 1.74683 4.79479 -2.70802 1.74683 4.79479 -2.70802 4.11417 -2.19861 7.16541 -26.0083 7.39191 -9.73863 -59.2476 47.0136 8.89822 13.9715 -3.79867 -22.21 1.59582 1.46593 -1.24571 7.95139e-015 6.36111e-015 -7.95139e-016 4.77083e-015 9.54167e-015 -7.95139e-016 26.7272 6.1625 9.36754 61.2948 13.5165 -14.9335 -20.9754 -7.111 11.4138 9.49167 -11.629 4.7126 -1.69278e-016 1.98785e-016 -4.96962e-017 4.65902e-018 0 -4.96962e-017 -4.44326 -4.82114 9.00248 
31.5865 95.468 -30.7018 -0.254711 -3.49906 -11.6417 0.856313 2.49288 -1.35209 4.78477 3.20665 17.5525 0.748212 7.16779 4.43893 0.097449 -3.73697 0.0281036 1.46575 -5.53318 -0.485927 -5.16105 -5.42198 4.17627 0.565269 14.8405 1.64903 -5.20071 -10.3591 4.54121 2.26042 -7.93876 2.74846 1.77821 4.96449 -2.74518 1.77389 4.96452 -2.74542 4.13119 -2.86357 7.96471 -25.6639 8.43588 -10.6719 -58.3305 46.2276 7.97384 12.5857 -6.5309 -22.5662 4.92281 0.726627 -2.31681 4.41391e-032 3.18055e-015 -7.95139e-016 8.82782e-032 3.18056e-015 -1.59028e-015 26.2355 5.82917 6.84116 63.8701 12.4191 -15.6037 -19.2712 -14.4728 12.12 7.9306 -10.5948 3.13553 3.47873e-016 -1.59028e-015 -0 -5.71506e-016 -3.18056e-015 -0 -4.37083 -4.62232 9.75849 
31.3982 95.2897 -30.6637 -0.313286 -3.91447 -12.7826 0.828065 2.56957 -1.40806 4.92997 3.39969 17.1953 0.569481 8.20788 5.96577 -0.239372 -4.45679 0.0463674 1.479 -5.69611 -0.471123 -4.81655 -5.99091 4.97737 0.226837 16.4131 2.22711 -5.6546 -10.9996 4.46732 2.33252 -8.1656 2.83617 1.71775 5.11778 -2.85547 1.72355 5.11774 -2.85555 4.72838 -2.4838 8.67564 -25.7375 8.4916 -11.8636 -57.5616 45.4328 6.63965 11.3746 -9.02789 -22.5132 7.15113 0.370208 -2.83321 3.18055e-015 0 -3.18055e-015 8.82782e-032 3.18056e-015 -1.59028e-015 25.4191 4.77641 5.01015 65.5231 11.5967 -15.9323 -18.6482 -18.7397 12.824 7.79541 -10.5614 2.98172 0 0 -1.98785e-016 -1.14301e-015 -3.18056e-015 -3.97569e-016 -4.99395 -5.33747 10.7277 
31.1883 94.957 -30.6679 -0.696313 -4.46666 -13.6978 0.853823 2.6362 -1.57696 5.64629 2.97665 17.2481 0.248719 11.0042 6.46212 0.0202718 -5.77333 0.0517739 1.46052 -6.13733 -0.299739 -4.15343 -6.53383 5.82419 -0.15321 18.4731 3.00314 -6.39616 -11.8226 4.02733 2.44028 -8.57045 3.05671 1.78256 5.24754 -3.19815 1.78224 5.24755 -3.19812 5.23019 -1.74617 9.34729 -25.5558 8.07724 -12.8705 -57.7123 44.6555 6.09913 11.3317 -10.195 -22.7271 7.76161 0.268812 -2.7777 6.36111e-015 -3.18055e-015 -1.59028e-015 3.18055e-015 -3.18056e-015 -0 24.734 3.23449 2.78004 65.6166 9.88969 -15.5993 -19.0667 -19.3257 13.535 9.44148 -11.9592 5.18332 -9.44227e-016 -6.36111e-015 6.95746e-016 -5.46658e-016 -6.36111e-015 3.97569e-016 -5.49899 -6.02657 11.6568 
